<?xml version="1.0" standalone="no"?>
<!DOCTYPE svg PUBLIC "-//W3C//DTD SVG 20010904//EN"
 "http://www.w3.org/TR/2001/REC-SVG-20010904/DTD/svg10.dtd">
<svg version="1.0" xmlns="http://www.w3.org/2000/svg"
 width="1236.000000pt" height="1600.000000pt" viewBox="0 0 1236.000000 1600.000000"
 preserveAspectRatio="xMidYMid meet">

<g transform="translate(0.000000,1600.000000) scale(0.100000,-0.100000)"
fill="#000000" stroke="none">
<path d="M4904 14891 c-247 -72 -434 -270 -629 -666 -139 -284 -240 -559 -410
-1121 -98 -323 -358 -1346 -478 -1879 l-42 -190 -310 -66 c-171 -37 -555 -123
-855 -192 -567 -131 -1017 -231 -1228 -272 -70 -14 -139 -34 -157 -45 -114
-70 -103 -244 18 -307 62 -32 224 -3 1007 178 261 61 556 128 655 149 99 22
310 69 469 105 158 36 294 65 301 65 9 0 0 -54 -31 -192 -25 -106 -71 -321
-105 -478 -33 -157 -114 -530 -179 -830 -65 -300 -135 -626 -155 -725 -20 -99
-72 -346 -116 -550 -182 -843 -211 -988 -207 -1046 5 -68 35 -114 92 -140 92
-42 188 -11 232 74 17 31 62 234 154 682 34 165 90 435 126 600 77 358 164
766 229 1075 26 124 83 387 126 585 63 284 169 776 216 998 3 15 10 30 15 33
24 15 1319 263 1718 329 282 46 920 138 925 133 2 -2 26 -84 53 -183 562
-1997 897 -2952 1236 -3530 115 -194 307 -426 460 -553 234 -195 413 -277 633
-289 275 -16 500 83 741 326 289 290 540 808 698 1439 l38 152 46 0 c112 1
358 46 494 92 270 90 463 235 611 458 110 165 171 338 196 559 15 135 6 446
-16 566 -81 438 -354 801 -780 1038 -192 107 -470 214 -724 277 -230 58 -603
113 -966 142 -212 17 -1073 17 -1335 0 -324 -21 -1038 -84 -1091 -96 -9 -2
-22 -1 -27 3 -6 4 -41 114 -77 246 -141 512 -190 680 -347 1205 -235 787 -454
1342 -643 1625 -60 90 -150 181 -211 211 -56 28 -282 31 -370 5z m290 -352
c71 -56 179 -289 317 -683 81 -230 334 -1065 434 -1431 26 -93 91 -327 146
-519 54 -192 97 -351 95 -353 -2 -2 -122 -22 -267 -43 -294 -43 -629 -98 -974
-160 -126 -23 -268 -48 -315 -56 -150 -26 -604 -113 -716 -138 -178 -38 -184
-39 -184 -21 0 26 195 865 270 1160 321 1270 534 1846 779 2107 107 115 191
156 317 157 58 1 76 -3 98 -20z m3621 -3189 c983 -53 1642 -258 2008 -626 202
-203 309 -457 324 -769 10 -218 -25 -414 -102 -570 -105 -213 -274 -346 -530
-419 -89 -25 -248 -56 -289 -56 l-22 0 14 118 c20 159 22 747 4 892 -50 398
-175 702 -355 865 -151 137 -511 260 -706 241 -173 -16 -296 -96 -367 -241
-53 -108 -67 -193 -60 -365 3 -80 12 -173 19 -207 10 -41 11 -63 4 -63 -5 0
-59 16 -118 35 -165 53 -268 68 -439 62 -171 -5 -265 -30 -367 -97 -318 -209
-268 -604 131 -1018 60 -62 133 -125 184 -159 155 -103 462 -222 777 -301 240
-60 412 -86 769 -117 39 -3 72 -8 75 -10 16 -16 -101 -405 -184 -610 -228
-563 -505 -887 -803 -936 -298 -49 -677 257 -971 785 -95 173 -287 620 -394
921 -122 343 -295 875 -392 1210 -26 88 -77 264 -115 390 -80 268 -260 912
-260 931 0 8 6 14 14 14 8 0 72 7 143 15 316 36 863 78 1143 88 220 8 694 6
865 -3z m508 -690 c108 -27 254 -94 318 -144 226 -179 313 -749 223 -1461 -22
-175 -8 -159 -133 -152 -429 25 -962 152 -1271 303 -129 63 -140 71 -236 168
-144 146 -229 277 -241 374 -8 68 10 94 81 121 80 30 183 36 303 17 261 -40
489 -162 666 -359 40 -43 85 -86 101 -94 43 -22 117 -19 163 6 59 34 88 83 88
152 0 53 -4 63 -53 134 -151 215 -260 552 -250 770 5 105 24 150 71 170 44 19
81 18 170 -5z"/>
<path d="M3790 5325 l0 -1035 195 0 195 0 0 1035 0 1035 -195 0 -195 0 0
-1035z"/>
<path d="M2456 6304 c-4 -15 -64 -183 -133 -373 -69 -190 -147 -409 -173 -486
-26 -77 -94 -266 -150 -420 -56 -154 -135 -374 -175 -490 -40 -115 -76 -218
-80 -228 -7 -16 6 -17 216 -15 l224 3 70 207 70 208 382 0 382 0 35 -112 c19
-62 48 -156 64 -208 l29 -95 226 -3 c125 -1 227 0 227 3 0 8 -164 480 -271
779 -56 155 -138 389 -184 521 -46 132 -123 351 -171 488 l-88 247 -247 0
-247 0 -6 -26z m258 -443 c3 -5 44 -132 91 -282 46 -151 100 -323 119 -384 20
-60 36 -116 36 -122 0 -10 -59 -13 -260 -13 -143 0 -260 3 -260 6 0 3 35 115
78 247 43 133 101 313 128 399 27 87 52 158 56 158 4 0 9 -4 12 -9z"/>
<path d="M4386 6224 c-24 -23 -19 -83 10 -143 25 -49 153 -191 173 -191 20 0
151 144 175 192 75 150 -24 212 -151 95 l-23 -20 -22 20 c-64 58 -131 78 -162
47z"/>
<path d="M8010 5483 c0 -786 1 -797 54 -918 90 -202 290 -315 557 -315 305 0
520 156 590 428 16 65 19 111 19 339 l0 263 -180 0 -180 0 0 -197 c-1 -306
-22 -397 -107 -457 -33 -23 -55 -30 -111 -34 -142 -10 -220 51 -251 196 -7 33
-11 179 -11 391 l0 338 72 7 c40 3 214 6 387 6 174 0 331 0 349 0 l32 0 0 135
0 135 -420 0 -420 0 0 205 0 205 -190 0 -190 0 0 -727z"/>
<path d="M5670 5825 c-128 -26 -236 -96 -306 -199 l-34 -51 0 113 0 112 -185
0 -185 0 0 -755 0 -755 195 0 195 0 0 479 c0 449 1 483 20 543 25 81 73 138
142 169 44 19 70 23 153 24 116 0 177 -21 214 -73 45 -64 51 -131 51 -654 l0
-488 195 0 195 0 0 565 c0 372 -4 582 -11 617 -28 133 -126 262 -243 317 -105
50 -258 64 -396 36z"/>
<path d="M6985 5826 c-200 -33 -334 -114 -404 -246 -32 -60 -61 -167 -61 -227
l0 -33 180 0 180 0 6 28 c18 72 67 133 133 167 52 26 183 32 256 10 33 -9 72
-26 87 -37 57 -40 74 -117 41 -185 -26 -56 -89 -79 -295 -109 -95 -14 -209
-34 -252 -45 -278 -70 -396 -225 -384 -504 4 -82 10 -111 33 -162 30 -68 96
-138 161 -171 111 -56 295 -76 444 -48 96 18 226 77 278 126 17 17 36 29 41
26 4 -3 11 -28 14 -56 3 -28 9 -55 12 -60 4 -6 80 -10 186 -10 l180 0 -3 558
c-3 494 -6 564 -21 617 -28 95 -67 166 -122 221 -102 102 -227 143 -460 149
-96 3 -179 0 -230 -9z m443 -923 c-4 -89 -9 -118 -30 -165 -33 -72 -98 -137
-174 -174 -53 -25 -70 -28 -159 -29 -86 0 -105 3 -136 22 -50 31 -73 86 -67
161 9 127 79 177 323 231 77 18 160 42 185 54 25 13 49 19 54 16 5 -4 7 -56 4
-116z"/>
<path d="M9901 5830 c-88 -12 -196 -46 -251 -78 -61 -35 -136 -107 -168 -160
-32 -56 -62 -163 -62 -224 l0 -48 180 0 c137 0 180 3 180 13 0 23 48 114 71
136 56 53 97 66 210 66 98 0 110 -2 164 -30 71 -37 98 -79 92 -144 -11 -102
-65 -131 -327 -171 -224 -34 -320 -58 -405 -103 -157 -83 -220 -212 -213 -432
5 -137 28 -202 96 -271 178 -178 601 -178 810 1 24 21 45 35 48 33 2 -3 9 -33
15 -67 l11 -61 185 0 184 0 -4 558 c-3 495 -5 564 -21 616 -57 191 -175 304
-367 351 -77 19 -337 28 -428 15z m429 -884 c0 -196 -63 -310 -208 -379 -61
-29 -76 -32 -162 -32 -81 0 -100 3 -131 23 -53 32 -72 79 -67 162 3 54 9 74
31 103 41 53 130 92 292 127 76 16 160 40 185 53 25 12 48 21 53 19 4 -2 7
-36 7 -76z"/>
<path d="M4370 5045 l0 -755 195 0 195 0 2 745 c2 410 2 750 0 755 -2 6 -77
10 -198 10 l-194 0 0 -755z"/>
<path d="M5280 2910 l0 -1030 200 0 200 0 0 243 0 242 96 98 c52 53 97 97 99
97 3 0 35 -64 73 -142 38 -79 113 -232 167 -340 l97 -198 220 0 219 0 -74 143
c-254 485 -418 808 -415 816 2 5 112 128 246 275 133 146 242 268 242 271 0 3
-105 5 -233 5 l-232 0 -66 -72 c-35 -40 -131 -149 -211 -243 -81 -93 -165
-190 -187 -215 l-40 -45 -1 563 0 562 -200 0 -200 0 0 -1030z"/>
<path d="M2000 2900 l0 -1021 563 3 c543 4 565 5 642 26 171 47 310 138 384
249 17 26 43 83 58 128 33 103 38 284 9 380 -41 139 -117 234 -233 290 -50 25
-55 30 -39 39 165 99 228 207 227 391 -1 262 -135 439 -386 512 -53 15 -126
18 -642 21 l-583 3 0 -1021z m1061 660 c56 -15 102 -51 127 -100 20 -38 23
-57 20 -122 -3 -66 -7 -82 -33 -119 -18 -26 -50 -53 -80 -68 l-49 -26 -321 0
-320 0 -3 219 c-1 127 2 222 7 225 15 10 613 1 652 -9z m19 -791 c69 -15 129
-62 163 -129 26 -50 28 -62 25 -135 -7 -125 -58 -202 -168 -254 l-55 -26 -322
-3 -323 -3 0 280 0 281 315 0 c189 0 334 -4 365 -11z"/>
<path d="M4265 3416 c-140 -23 -230 -60 -318 -130 -81 -64 -146 -202 -150
-315 l-2 -66 179 0 179 0 16 53 c20 66 59 115 114 144 36 19 58 23 147 23 172
0 249 -44 258 -148 5 -68 -15 -110 -66 -136 -52 -26 -96 -37 -261 -61 -348
-52 -501 -125 -572 -273 -55 -117 -64 -303 -19 -422 64 -166 254 -256 515
-241 160 8 258 42 363 126 34 26 54 36 56 28 2 -7 8 -35 12 -63 l9 -50 188 -3
188 -2 -3 552 c-5 606 -4 603 -68 734 -57 116 -182 206 -336 240 -96 21 -329
27 -429 10z m433 -936 c-4 -75 -11 -118 -25 -150 -32 -70 -96 -135 -170 -172
-55 -27 -79 -33 -152 -36 -75 -3 -92 0 -131 20 -60 31 -84 74 -84 152 1 93 37
150 121 188 24 10 111 34 195 53 84 19 173 46 198 58 55 29 54 31 48 -113z"/>
<path d="M7145 3416 c-103 -19 -189 -54 -269 -106 -141 -92 -223 -215 -277
-415 -10 -35 -14 -112 -14 -250 0 -174 3 -212 23 -290 36 -143 81 -225 176
-320 139 -140 270 -187 526 -189 171 -1 233 10 344 64 145 69 286 235 331 388
l6 22 -198 0 -199 0 -34 -52 c-27 -40 -49 -60 -94 -83 -54 -27 -68 -30 -155
-30 -84 1 -102 4 -147 27 -57 30 -113 88 -144 147 -20 39 -50 149 -50 184 0
16 31 17 522 17 l521 0 -6 128 c-18 351 -142 589 -362 697 -38 19 -97 42 -130
51 -83 21 -282 27 -370 10z m254 -313 c64 -20 135 -81 165 -142 22 -42 46
-131 46 -166 0 -13 -46 -15 -315 -15 l-315 0 6 43 c35 224 213 345 413 280z"/>
<path d="M8823 3415 c-35 -8 -86 -26 -114 -42 -48 -26 -159 -127 -159 -145 0
-4 -4 -8 -10 -8 -6 0 -10 35 -10 85 l0 85 -185 0 -185 0 0 -755 0 -755 200 0
199 0 3 463 c3 458 3 462 26 512 59 128 185 191 365 183 l77 -3 0 197 0 198
-72 -1 c-40 0 -101 -7 -135 -14z"/>
<path d="M9150 2873 c0 -572 3 -603 62 -723 37 -76 138 -181 213 -222 150 -80
371 -85 521 -11 58 28 139 101 149 134 16 49 25 8 25 -109 0 -207 -27 -301
-108 -374 -59 -53 -116 -72 -209 -66 -99 6 -172 37 -219 91 -35 42 -64 118
-64 169 l0 28 -182 -2 -183 -3 3 -70 c11 -268 181 -470 448 -531 105 -24 311
-24 409 0 191 47 348 171 430 341 65 135 65 134 65 1045 l0 820 -194 0 -195 0
-3 -497 c-3 -560 -1 -539 -80 -620 -63 -64 -125 -87 -233 -87 -122 0 -181 31
-228 119 -22 39 -22 52 -27 560 l-5 520 -197 3 -198 2 0 -517z"/>
</g>
</svg>
